<svg version="1.1" id="Layer_1" xmlns="http://www.w3.org/2000/svg" xmlns:xlink="http://www.w3.org/1999/xlink" x="0px" y="0px"
	 width="100%" viewBox="0 0 62 78" enable-background="new 0 0 62 78" xml:space="preserve">
<path fill="#000000" opacity="1.000000" stroke="none" 
	d="
M1.000000,70.000000 
	C1.000000,58.979107 1.000000,47.958210 1.366772,36.459736 
	C3.115642,36.625664 4.497740,37.269173 5.580540,38.125191 
	C6.116320,40.977779 7.046581,43.593109 7.742616,46.269348 
	C8.048289,47.444656 7.876632,48.744106 7.956480,49.990173 
	C7.991251,49.993156 7.983377,49.923805 7.714193,50.077423 
	C7.614536,50.841820 7.784062,51.452599 7.972063,52.033745 
	C7.990538,52.004112 7.921624,52.015457 7.806834,52.340248 
	C8.763632,53.712189 9.835218,54.759342 11.215565,55.949440 
	C13.211799,55.765087 14.899273,55.437790 17.374470,54.957710 
	C17.171782,54.810055 17.820147,55.284348 18.470537,55.755848 
	C21.871822,58.221634 26.699688,58.690842 28.153030,63.911160 
	C28.816702,66.295029 35.785198,65.332039 36.951397,62.881149 
	C39.398064,57.739216 44.512127,57.309177 49.149368,56.304794 
	C52.012810,59.737957 52.733227,56.445843 54.040649,55.017803 
	C54.009007,55.005882 54.014160,55.073318 54.271774,54.992500 
	C54.706699,54.611195 54.884007,54.310703 55.030762,54.005310 
	C55.000210,54.000408 55.010628,54.061405 55.269699,53.985394 
	C55.708794,53.610111 55.888813,53.310841 56.036186,53.007370 
	C56.003532,53.003166 56.013138,53.068302 56.262726,52.994892 
	C56.643127,52.622551 56.773945,52.323620 56.929607,51.752136 
	C56.920155,51.300388 56.885849,51.121189 56.755440,50.637978 
	C56.110641,50.195072 55.561943,50.056183 55.010128,49.952431 
	C55.007011,49.987568 55.076962,49.978397 55.182419,49.607613 
	C56.157272,46.481968 57.026676,43.727108 57.954369,40.589958 
	C58.179642,37.032543 59.703251,35.465427 63.000000,36.000000 
	C63.000000,47.354229 63.000000,58.708454 62.756420,70.455414 
	C62.343410,70.863144 62.173977,70.878143 61.773773,70.877098 
	C61.542995,70.861061 61.090862,70.762695 60.865421,70.504959 
	C59.424541,70.458008 58.209103,70.668793 56.669022,70.928986 
	C55.907196,70.955299 55.470009,70.932213 55.017857,70.942337 
	C55.002888,70.975555 55.074722,70.963364 54.943954,70.692657 
	C54.223972,70.605942 53.634754,70.789948 52.964890,71.221031 
	C52.853729,71.579872 52.780716,71.700363 52.801533,71.801559 
	C52.845097,72.013329 52.938107,72.214920 52.660851,72.634338 
	C52.124760,73.909218 51.938633,74.970444 51.620144,75.909836 
	C51.487782,75.788002 51.154327,75.652840 51.123711,75.352013 
	C50.694736,74.725693 50.296383,74.400208 49.742882,73.811317 
	C49.068165,73.012505 48.548588,72.477097 48.015472,71.969353 
	C48.001938,71.997025 48.061935,71.983032 48.012848,71.712616 
	C47.650864,71.301758 47.337967,71.161308 46.847397,70.970551 
	C46.669731,70.920250 46.302429,70.958687 46.156189,70.719231 
	C45.685005,70.346169 45.360058,70.212563 44.649727,70.058372 
	C43.493176,70.047836 42.722000,70.057877 41.672394,70.095840 
	C41.151215,70.404488 40.908463,70.685211 40.528969,70.916092 
	C40.392227,70.866257 40.101173,70.862846 39.757050,70.816940 
	C38.953365,70.814400 38.493813,70.857758 38.020584,70.939301 
	C38.006916,70.977486 38.087170,70.989342 38.004227,70.760681 
	C37.738586,70.203529 37.462811,70.075233 36.675331,70.092209 
	C35.135914,70.088646 34.015125,70.140007 32.607952,70.331070 
	C31.606529,71.272629 30.891487,72.074486 30.099318,72.514374 
	C27.799139,68.733070 25.173559,69.222588 23.541580,72.257324 
	C22.563549,74.076012 23.128536,76.724480 23.000000,79.000000 
	C22.250000,79.000000 21.500000,79.000000 20.365355,78.664169 
	C17.657257,76.198715 12.982750,75.062759 17.537392,69.972618 
	C14.399884,70.328514 12.187794,70.579437 9.669502,70.869720 
	C8.601083,70.660156 7.838864,70.411224 6.646239,70.098160 
	C4.477221,70.022690 2.738611,70.011345 1.000000,70.000000 
z"/>
<path fill="#1C1B8B" opacity="1.000000" stroke="none" 
	d="
M56.851540,50.941990 
	C56.885849,51.121189 56.920155,51.300388 56.703701,51.849258 
	C56.171467,52.432205 56.024864,52.715328 56.013138,53.068302 
	C56.013138,53.068302 56.003532,53.003166 55.772678,53.077744 
	C55.364758,53.455353 55.187695,53.758381 55.010628,54.061405 
	C55.010628,54.061405 55.000210,54.000408 54.767193,54.077522 
	C54.360840,54.460865 54.187500,54.767094 54.014160,55.073318 
	C54.014160,55.073318 54.009007,55.005882 53.674534,55.021183 
	C51.931110,55.347103 50.522160,55.657722 49.113209,55.968346 
	C44.512127,57.309177 39.398064,57.739216 36.951397,62.881149 
	C35.785198,65.332039 28.816702,66.295029 28.153030,63.911160 
	C26.699688,58.690842 21.871822,58.221634 18.470537,55.755848 
	C17.820147,55.284348 17.171782,54.810055 17.374470,54.957710 
	C14.899273,55.437790 13.211799,55.765087 11.196993,55.634094 
	C9.886983,54.122353 8.904304,53.068905 7.921624,52.015457 
	C7.921624,52.015457 7.990538,52.004112 7.982286,51.677109 
	C7.977149,50.874668 7.980262,50.399239 7.983377,49.923805 
	C7.983377,49.923805 7.991251,49.993156 8.311172,49.974442 
	C9.213247,48.911240 10.527729,47.580894 10.250900,46.871719 
	C9.046663,43.786697 7.379077,40.882549 5.879839,37.912682 
	C4.497740,37.269173 3.115642,36.625664 1.366772,35.991077 
	C1.000000,33.629440 1.000000,31.258884 1.376964,28.449650 
	C3.207804,27.008785 4.661679,26.006594 6.389538,24.797585 
	C7.432951,22.374474 8.202381,20.158180 8.983814,17.970587 
	C8.995818,17.999287 8.934431,17.989162 9.230002,17.923981 
	C9.862519,17.392208 10.199465,16.925615 10.536410,16.459023 
	C9.999177,16.318027 9.461943,16.177032 8.953249,16.018559 
	C8.981788,16.001080 8.989130,16.067608 8.921889,15.802372 
	C8.546716,15.359073 8.238783,15.181008 7.963854,15.004189 
	C7.996857,15.005432 7.975251,15.067852 8.005424,14.654527 
	C8.012339,13.137906 7.989080,12.034611 7.980041,10.963017 
	C7.994258,10.994717 7.930495,10.967103 8.245337,10.991636 
	C9.032084,10.660874 9.503987,10.305578 10.116537,9.641715 
	C12.460043,6.147749 14.385491,6.706589 15.848863,10.090064 
	C18.884378,8.350388 21.725357,7.013343 24.201187,5.182508 
	C25.470812,4.243640 26.087973,2.422446 27.000000,1.000000 
	C29.370558,1.000000 31.741114,1.000000 34.567421,1.391535 
	C35.932129,3.304988 36.492207,5.384127 37.829731,6.221574 
	C39.973484,7.563817 42.632259,8.083489 45.050011,8.975595 
	C45.026657,9.000366 45.020432,8.932564 45.180000,9.194891 
	C46.531223,9.269809 47.722881,9.082400 49.080444,8.581367 
	C53.054245,4.731233 54.402206,9.346682 56.049732,10.862306 
	C56.997635,11.734317 56.000725,14.720397 55.879253,16.754852 
	C55.404934,16.761189 54.930614,16.767525 54.456295,16.773861 
	C55.598347,19.145943 57.427956,21.436689 57.720459,23.909271 
	C58.153515,27.569963 59.920109,28.340961 63.000000,28.000000 
	C63.000000,30.370558 63.000000,32.741116 63.000000,35.555836 
	C59.703251,35.465427 58.179642,37.032543 57.612564,40.635735 
	C55.893208,43.889824 50.928509,45.842571 55.076962,49.978397 
	C55.076962,49.978397 55.007011,49.987568 55.147373,50.202415 
	C55.809002,50.592175 56.330273,50.767082 56.851540,50.941990 
M9.185838,26.377752 
	C7.242364,31.090906 7.749607,35.663536 9.930325,40.860744 
	C12.991554,48.918072 18.865673,53.719124 28.022753,55.864250 
	C31.308847,55.253517 34.594944,54.642788 38.704380,53.977619 
	C45.872204,53.772533 51.226837,48.279552 53.819382,39.061443 
	C57.449703,34.062668 56.326904,29.036009 53.832172,23.303045 
	C51.030823,16.431286 46.184113,11.745958 38.458393,9.092086 
	C34.075642,9.175499 29.692886,9.258912 24.531681,9.540311 
	C16.999050,12.670053 11.053512,17.217508 9.185838,26.377752 
z"/>
<path fill="#000000" opacity="1.000000" stroke="none" 
	d="
M63.000000,27.531338 
	C59.920109,28.340961 58.153515,27.569963 57.720459,23.909271 
	C57.427956,21.436689 55.598347,19.145943 54.456295,16.773861 
	C54.930614,16.767525 55.404934,16.761189 55.879253,16.754852 
	C56.000725,14.720397 56.997635,11.734317 56.049732,10.862306 
	C54.402206,9.346682 53.054245,4.731233 48.688248,8.635239 
	C47.093571,8.979343 46.057003,8.955954 45.020432,8.932564 
	C45.020432,8.932564 45.026657,9.000366 45.139290,8.595986 
	C43.592175,7.349030 42.005745,6.275589 40.254990,5.719590 
	C37.810238,4.943194 36.317924,3.798732 37.000000,1.000000 
	C45.594475,1.000000 54.188946,1.000000 63.000000,1.000000 
	C63.000000,9.686362 63.000000,18.374519 63.000000,27.531338 
z"/>
<path fill="#000000" opacity="1.000000" stroke="none" 
	d="
M26.531334,1.000000 
	C26.087973,2.422446 25.470812,4.243640 24.201187,5.182508 
	C21.725357,7.013343 18.884378,8.350388 15.848863,10.090064 
	C14.385491,6.706589 12.460043,6.147749 9.804420,9.667486 
	C8.877936,10.323583 8.404216,10.645343 7.930495,10.967103 
	C7.930495,10.967103 7.994258,10.994717 7.666521,11.133706 
	C7.550940,12.537747 7.763095,13.802800 7.975251,15.067852 
	C7.975251,15.067852 7.996857,15.005432 8.043963,15.263011 
	C8.390423,15.702929 8.689776,15.885269 8.989130,16.067608 
	C8.989130,16.067608 8.981788,16.001080 8.972534,16.343697 
	C8.953664,17.120596 8.944048,17.554878 8.934431,17.989162 
	C8.934431,17.989162 8.995818,17.999287 8.665186,18.101597 
	C7.594887,20.470739 6.855221,22.737572 6.115554,25.004404 
	C4.661679,26.006594 3.207804,27.008785 1.376964,28.005487 
	C1.000000,19.074970 1.000000,10.149941 1.000000,1.000000 
	C9.352880,1.000000 17.707775,1.000000 26.531334,1.000000 
z"/>
<path fill="#5B5B5B" opacity="1.000000" stroke="none" 
	d="
M9.975702,70.830353 
	C12.187794,70.579437 14.399884,70.328514 17.537392,69.972618 
	C12.982750,75.062759 17.657257,76.198715 19.990355,78.664169 
	C17.958334,79.000000 15.916667,79.000000 13.214851,78.719315 
	C11.036469,78.625748 9.518234,78.812874 8.000000,79.000000 
	C8.000000,79.000000 7.500000,79.000000 7.270277,78.669678 
	C7.026047,77.898430 7.011540,77.457512 7.126944,76.677979 
	C7.785817,74.928604 8.314780,73.517860 9.105967,71.967247 
	C9.570693,71.495041 9.773197,71.162697 9.975702,70.830353 
z"/>
<path fill="#4A4A4D" opacity="1.000000" stroke="none" 
	d="
M32.894333,70.191360 
	C34.015125,70.140007 35.135914,70.088646 36.773701,70.299179 
	C37.504509,70.799889 37.770000,70.942642 38.087170,70.989342 
	C38.087170,70.989342 38.006916,70.977486 38.012062,71.379578 
	C37.979050,73.816742 37.940899,75.851807 37.614510,77.941635 
	C36.884182,78.330940 36.442093,78.665466 36.000000,79.000000 
	C35.555553,79.000000 35.111111,79.000000 34.167004,78.634354 
	C33.409672,75.576256 33.152004,72.883804 32.894333,70.191360 
z"/>
<path fill="#5E5E60" opacity="1.000000" stroke="none" 
	d="
M23.399998,79.000000 
	C23.128536,76.724480 22.563549,74.076012 23.541580,72.257324 
	C25.173559,69.222588 27.799139,68.733070 29.805401,72.550186 
	C29.391884,72.963356 29.195152,72.978767 28.632172,72.992409 
	C27.357676,73.123238 26.449430,73.255836 25.670549,73.369545 
	C26.154961,75.421104 26.577480,77.210548 27.000000,79.000000 
	C25.933331,79.000000 24.866661,79.000000 23.399998,79.000000 
z"/>
<path fill="#494949" opacity="1.000000" stroke="none" 
	d="
M1.000000,70.400009 
	C2.738611,70.011345 4.477221,70.022690 6.580314,70.419098 
	C6.348495,71.888451 5.752193,72.972740 5.125919,74.348602 
	C5.389534,75.085754 5.683120,75.531349 6.031119,76.195030 
	C6.085533,76.413116 5.984950,76.851257 5.887631,77.139923 
	C5.526875,77.952385 5.263438,78.476196 5.000000,79.000000 
	C5.000000,79.000000 4.500000,79.000000 4.288722,78.634109 
	C3.724805,77.186470 3.372165,76.104721 2.840205,74.789780 
	C2.107257,74.371048 1.553628,74.185524 0.999999,74.000000 
	C1.000000,72.933342 1.000000,71.866676 1.000000,70.400009 
z"/>
<path fill="#7A7A7B" opacity="1.000000" stroke="none" 
	d="
M28.998423,72.994171 
	C29.195152,72.978767 29.391884,72.963356 29.882530,72.912140 
	C30.891487,72.074486 31.606529,71.272629 32.607952,70.331070 
	C33.152004,72.883804 33.409672,75.576256 33.833672,78.634354 
	C32.611111,79.000000 31.222221,79.000000 29.421806,78.717560 
	C29.019341,78.247009 29.028400,78.058899 29.314724,77.745407 
	C29.408489,76.794243 29.224993,75.968460 29.027424,74.784805 
	C29.008373,73.949348 29.003399,73.471756 28.998423,72.994171 
z"/>
<path fill="#4747A1" opacity="1.000000" stroke="none" 
	d="
M36.666668,1.000000 
	C36.317924,3.798732 37.810238,4.943194 40.254990,5.719590 
	C42.005745,6.275589 43.592175,7.349030 45.162640,8.571215 
	C42.632259,8.083489 39.973484,7.563817 37.829731,6.221574 
	C36.492207,5.384127 35.932129,3.304988 35.011581,1.391535 
	C35.444447,1.000000 35.888889,1.000000 36.666668,1.000000 
z"/>
<path fill="#686869" opacity="1.000000" stroke="none" 
	d="
M63.000000,72.000000 
	C63.000000,73.389000 63.000000,74.777992 62.603523,76.523132 
	C61.155060,76.977104 60.103065,77.074936 58.905354,76.821037 
	C57.785191,74.115425 57.231796,71.972519 60.996750,72.315430 
	C61.110004,73.169724 61.227791,73.704330 61.664757,75.687637 
	C61.893867,73.334953 61.978451,72.466393 62.311646,71.664894 
	C62.706833,71.821312 62.853416,71.910652 63.000000,72.000000 
z"/>
<path fill="#4F4F4F" opacity="1.000000" stroke="none" 
	d="
M51.154327,75.652840 
	C51.154327,75.652840 51.487782,75.788002 52.056290,75.825523 
	C52.753468,74.715591 52.882137,73.568146 53.010811,72.420692 
	C52.938107,72.214920 52.845097,72.013329 52.801533,71.801559 
	C52.780716,71.700363 52.853729,71.579872 53.302128,71.256851 
	C54.171581,71.018181 54.623154,70.990776 55.074722,70.963364 
	C55.074722,70.963364 55.002888,70.975555 54.985287,71.360046 
	C55.030186,72.857994 55.092686,73.971451 55.106228,75.441254 
	C55.025501,76.515640 54.993729,77.233665 54.931602,77.947464 
	C54.901245,77.943222 54.845222,77.968117 54.561852,77.971611 
	C53.852322,78.316734 53.426159,78.658363 53.000000,79.000000 
	C52.555553,79.000000 52.111111,79.000000 51.328503,78.581123 
	C51.045002,77.325775 51.099667,76.489311 51.154327,75.652840 
z"/>
<path fill="#757577" opacity="1.000000" stroke="none" 
	d="
M29.037458,77.870796 
	C29.028400,78.058899 29.019341,78.247009 29.005140,78.717560 
	C28.555555,79.000000 28.111111,79.000000 27.333334,79.000000 
	C26.577480,77.210548 26.154961,75.421104 25.670549,73.369545 
	C26.449430,73.255836 27.357676,73.123238 28.632172,72.992409 
	C29.003399,73.471756 29.008373,73.949348 28.999493,75.124504 
	C29.002913,76.504982 29.020185,77.187889 29.037458,77.870796 
z"/>
<path fill="#6C6C6F" opacity="1.000000" stroke="none" 
	d="
M37.902748,77.886871 
	C37.940899,75.851807 37.979050,73.816742 38.025730,71.341400 
	C38.493813,70.857758 38.953365,70.814400 39.839230,71.172928 
	C40.242695,72.060875 40.219852,72.546936 40.126564,73.392586 
	C40.373310,74.845894 40.690498,75.939629 41.004753,77.018303 
	C41.001820,77.003250 40.985653,76.990173 40.986259,77.325310 
	C40.991245,78.106964 40.995621,78.553482 41.000000,79.000000 
	C41.000000,79.000000 40.500000,79.000000 40.103302,78.717880 
	C39.105320,78.252800 38.504036,78.069832 37.902748,77.886871 
z"/>
<path fill="#68686C" opacity="1.000000" stroke="none" 
	d="
M45.000000,79.000000 
	C44.250000,79.000000 43.500000,79.000000 42.366997,78.693802 
	C41.651215,77.921799 41.318432,77.455986 40.985653,76.990173 
	C40.985653,76.990173 41.001820,77.003250 41.101154,76.766411 
	C41.632099,76.314583 42.063709,76.099594 42.923000,75.859543 
	C44.199829,75.891304 45.048981,75.948120 46.177055,76.036102 
	C46.642776,76.078209 46.829567,76.089134 47.007507,76.442703 
	C46.968269,77.241066 46.937878,77.696777 46.664330,78.030083 
	C45.947449,78.271782 45.473724,78.635895 45.000000,79.000000 
z"/>
<path fill="#000000" opacity="1.000000" stroke="none" 
	d="
M0.999999,74.499969 
	C1.553628,74.185524 2.107257,74.371048 2.837516,75.187614 
	C3.009431,76.879105 3.004716,77.939552 3.000000,79.000000 
	C-0.925308,79.295929 1.882783,76.225227 0.999999,74.499969 
z"/>
<path fill="#474747" opacity="1.000000" stroke="none" 
	d="
M51.123711,75.352013 
	C51.099667,76.489311 51.045002,77.325775 50.995171,78.581123 
	C50.555557,79.000000 50.111111,79.000000 49.345753,78.594437 
	C49.000629,77.107925 48.976418,76.026978 49.102600,74.792465 
	C49.442764,74.421974 49.657776,74.233917 49.898026,74.074715 
	C50.296383,74.400208 50.694736,74.725693 51.123711,75.352013 
z"/>
<path fill="#000000" opacity="1.000000" stroke="none" 
	d="
M59.051075,77.172760 
	C60.103065,77.074936 61.155060,76.977104 62.603523,76.939636 
	C63.511642,79.934280 61.306061,78.792564 59.491379,78.763626 
	C58.982883,78.527245 58.908512,78.060051 58.971607,77.842636 
	C59.034702,77.625229 59.051075,77.172760 59.051075,77.172760 
z"/>
<path fill="#666669" opacity="1.000000" stroke="none" 
	d="
M48.952206,74.946037 
	C48.976418,76.026978 49.000629,77.107925 49.012421,78.594437 
	C48.555557,79.000000 48.111111,79.000000 47.326378,78.786362 
	C46.986088,78.572716 46.907486,78.152489 46.907486,78.152489 
	C46.937878,77.696777 46.968269,77.241066 47.072735,76.216812 
	C47.270557,75.343315 47.483219,75.125031 48.077171,74.994537 
	C48.563766,74.979141 48.757984,74.962593 48.952206,74.946037 
z"/>
<path fill="#868686" opacity="1.000000" stroke="none" 
	d="
M8.416666,79.000000 
	C9.518234,78.812874 11.036469,78.625748 12.777351,78.719315 
	C11.611111,79.000000 10.222222,79.000000 8.416666,79.000000 
z"/>
<path fill="#808080" opacity="1.000000" stroke="none" 
	d="
M58.908512,78.060051 
	C58.908512,78.060051 58.982883,78.527245 58.991440,78.763626 
	C57.933430,79.000000 56.866863,79.000000 55.370213,78.740715 
	C54.908497,78.310333 54.876858,78.139229 54.845222,77.968117 
	C54.845222,77.968117 54.901245,77.943222 55.192642,77.951904 
	C55.875847,77.622955 56.267658,77.285324 56.863178,77.207764 
	C57.680767,77.665230 58.294640,77.862640 58.908512,78.060051 
z"/>
<path fill="#898989" opacity="1.000000" stroke="none" 
	d="
M37.614510,77.941635 
	C38.504036,78.069832 39.105320,78.252800 39.853302,78.717880 
	C38.933331,79.000000 37.866661,79.000000 36.399994,79.000000 
	C36.442093,78.665466 36.884182,78.330940 37.614510,77.941635 
z"/>
<path fill="#8D8D8D" opacity="1.000000" stroke="none" 
	d="
M3.250000,79.000000 
	C3.004716,77.939552 3.009431,76.879105 3.016836,75.420822 
	C3.372165,76.104721 3.724805,77.186470 4.038722,78.634109 
	C4.000000,79.000000 3.500000,79.000000 3.250000,79.000000 
z"/>
<path fill="#4E4E4F" opacity="1.000000" stroke="none" 
	d="
M46.664330,78.030083 
	C46.907486,78.152489 46.986088,78.572716 46.993042,78.786362 
	C46.555553,79.000000 46.111111,79.000000 45.333332,79.000000 
	C45.473724,78.635895 45.947449,78.271782 46.664330,78.030083 
z"/>
<path fill="#FFFFFF" opacity="1.000000" stroke="none" 
	d="
M5.333333,79.000000 
	C5.263438,78.476196 5.526875,77.952385 6.136050,77.209427 
	C6.653536,76.999046 6.825285,77.007820 6.997034,77.016594 
	C7.011540,77.457512 7.026047,77.898430 7.020277,78.669678 
	C6.555555,79.000000 6.111111,79.000000 5.333333,79.000000 
z"/>
<path fill="#4E4E4F" opacity="1.000000" stroke="none" 
	d="
M40.986259,77.325310 
	C41.318432,77.455986 41.651215,77.921799 41.991997,78.693802 
	C42.000000,79.000000 41.500000,79.000000 41.250000,79.000000 
	C40.995621,78.553482 40.991245,78.106964 40.986259,77.325310 
z"/>
<path fill="#7F7F7F" opacity="1.000000" stroke="none" 
	d="
M54.561852,77.971611 
	C54.876858,78.139229 54.908497,78.310333 54.970066,78.740715 
	C54.555553,79.000000 54.111111,79.000000 53.333328,79.000000 
	C53.426159,78.658363 53.852322,78.316734 54.561852,77.971611 
z"/>
<path fill="#494949" opacity="1.000000" stroke="none" 
	d="
M63.000000,71.750000 
	C62.853416,71.910652 62.706833,71.821312 62.288841,71.492126 
	C62.017426,71.252281 62.004547,70.893135 62.004547,70.893135 
	C62.173977,70.878143 62.343410,70.863144 62.756420,70.924072 
	C63.000000,71.000000 63.000000,71.500000 63.000000,71.750000 
z"/>
<path fill="#4F4FAC" opacity="1.000000" stroke="none" 
	d="
M5.580540,38.125191 
	C7.379077,40.882549 9.046663,43.786697 10.250900,46.871719 
	C10.527729,47.580894 9.213247,48.911240 8.276402,49.971458 
	C7.876632,48.744106 8.048289,47.444656 7.742616,46.269348 
	C7.046581,43.593109 6.116320,40.977779 5.580540,38.125191 
z"/>
<path fill="#4A4AA6" opacity="1.000000" stroke="none" 
	d="
M55.182419,49.607613 
	C50.928509,45.842571 55.893208,43.889824 57.554276,41.018024 
	C57.026676,43.727108 56.157272,46.481968 55.182419,49.607613 
z"/>
<path fill="#494949" opacity="1.000000" stroke="none" 
	d="
M58.971607,77.842636 
	C58.294640,77.862640 57.680767,77.665230 56.909702,76.906281 
	C56.721951,75.941528 56.691387,75.538315 56.759415,74.719452 
	C56.903225,73.162384 56.948444,72.020973 56.993664,70.879578 
	C58.209103,70.668793 59.424541,70.458008 60.835449,70.813065 
	C61.021042,71.584518 61.011162,71.790131 61.001278,71.995743 
	C57.231796,71.972519 57.785191,74.115425 58.905354,76.821037 
	C59.051075,77.172760 59.034702,77.625229 58.971607,77.842636 
z"/>
<path fill="#47474A" opacity="1.000000" stroke="none" 
	d="
M40.197006,73.033005 
	C40.219852,72.546936 40.242695,72.060875 40.183357,71.218826 
	C40.101173,70.862846 40.392227,70.866257 40.810440,70.872284 
	C41.469376,70.608177 41.710102,70.338043 41.950825,70.067917 
	C42.722000,70.057877 43.493176,70.047836 44.626816,70.311310 
	C44.989853,70.754341 44.990425,70.923836 45.000046,71.375015 
	C45.016720,72.032372 45.024338,72.408051 44.645123,72.829453 
	C44.005550,72.933815 43.752804,72.992455 43.166977,73.054337 
	C41.954929,73.049393 41.075970,73.041199 40.197006,73.033005 
z"/>
<path fill="#404040" opacity="1.000000" stroke="none" 
	d="
M45.031952,72.783730 
	C45.024338,72.408051 45.016720,72.032372 45.329636,71.357201 
	C45.867588,71.024704 46.085011,70.991699 46.302429,70.958687 
	C46.302429,70.958687 46.669731,70.920250 46.860973,71.267303 
	C47.388786,71.737251 47.725361,71.860146 48.061935,71.983032 
	C48.061935,71.983032 48.001938,71.997025 47.908054,72.339828 
	C47.804379,73.452881 47.794582,74.223145 47.784790,74.993401 
	C47.483219,75.125031 47.270557,75.343315 47.081581,75.874161 
	C46.829567,76.089134 46.642776,76.078209 46.222336,75.684845 
	C45.669773,74.462845 45.350861,73.623283 45.031952,72.783730 
z"/>
<path fill="#707071" opacity="1.000000" stroke="none" 
	d="
M5.155891,74.057030 
	C5.752193,72.972740 6.348495,71.888451 7.010720,70.483223 
	C7.838864,70.411224 8.601083,70.660156 9.669502,70.869720 
	C9.773197,71.162697 9.570693,71.495041 8.831120,72.036964 
	C7.577413,72.844383 6.860775,73.442230 5.897017,74.040909 
	C5.649897,74.041740 5.155891,74.057030 5.155891,74.057030 
z"/>
<path fill="#808080" opacity="1.000000" stroke="none" 
	d="
M56.669022,70.928986 
	C56.948444,72.020973 56.903225,73.162384 56.510345,74.692535 
	C55.826855,75.082489 55.491020,75.083694 55.155186,75.084900 
	C55.092686,73.971451 55.030186,72.857994 55.000256,71.326836 
	C55.470009,70.932213 55.907196,70.955299 56.669022,70.928986 
z"/>
<path fill="#4A4AA6" opacity="1.000000" stroke="none" 
	d="
M49.149368,56.304794 
	C50.522160,55.657722 51.931110,55.347103 53.706177,55.033104 
	C52.733227,56.445843 52.012810,59.737957 49.149368,56.304794 
z"/>
<path fill="#4F4FAC" opacity="1.000000" stroke="none" 
	d="
M7.806834,52.340248 
	C8.904304,53.068905 9.886983,54.122353 10.888234,55.491150 
	C9.835218,54.759342 8.763632,53.712189 7.806834,52.340248 
z"/>
<path fill="#939393" opacity="1.000000" stroke="none" 
	d="
M48.077171,74.994537 
	C47.794582,74.223145 47.804379,73.452881 47.921593,72.312149 
	C48.548588,72.477097 49.068165,73.012505 49.742882,73.811317 
	C49.657776,74.233917 49.442764,74.421974 49.102600,74.792465 
	C48.757984,74.962593 48.563766,74.979141 48.077171,74.994537 
z"/>
<path fill="#4C4C4C" opacity="1.000000" stroke="none" 
	d="
M60.996750,72.315430 
	C61.011162,71.790131 61.021042,71.584518 61.060890,71.070801 
	C61.090862,70.762695 61.542995,70.861061 61.773773,70.877098 
	C62.004547,70.893135 62.017426,71.252281 62.040230,71.425049 
	C61.978451,72.466393 61.893867,73.334953 61.664757,75.687637 
	C61.227791,73.704330 61.110004,73.169724 60.996750,72.315430 
z"/>
<path fill="#FFFFFF" opacity="1.000000" stroke="none" 
	d="
M52.660847,72.634338 
	C52.882137,73.568146 52.753468,74.715591 52.188652,75.947357 
	C51.938633,74.970444 52.124760,73.909218 52.660847,72.634338 
z"/>
<path fill="#7A7A7A" opacity="1.000000" stroke="none" 
	d="
M54.943954,70.692657 
	C54.623154,70.990776 54.171581,71.018181 53.382774,71.009766 
	C53.634754,70.789948 54.223972,70.605942 54.943954,70.692657 
z"/>
<path fill="#4F4FAC" opacity="1.000000" stroke="none" 
	d="
M7.714193,50.077423 
	C7.980262,50.399239 7.977149,50.874668 7.963811,51.706741 
	C7.784062,51.452599 7.614536,50.841820 7.714193,50.077423 
z"/>
<path fill="#4A4AA6" opacity="1.000000" stroke="none" 
	d="
M56.755440,50.637978 
	C56.330273,50.767082 55.809002,50.592175 55.150490,50.167274 
	C55.561943,50.056183 56.110641,50.195072 56.755440,50.637978 
z"/>
<path fill="#4A4AA6" opacity="1.000000" stroke="none" 
	d="
M56.262726,52.994892 
	C56.024864,52.715328 56.171467,52.432205 56.678852,52.121811 
	C56.773945,52.323620 56.643127,52.622551 56.262726,52.994892 
z"/>
<path fill="#4A4AA6" opacity="1.000000" stroke="none" 
	d="
M55.269699,53.985394 
	C55.187695,53.758381 55.364758,53.455353 55.805328,53.081947 
	C55.888813,53.310841 55.708794,53.610111 55.269699,53.985394 
z"/>
<path fill="#4A4AA6" opacity="1.000000" stroke="none" 
	d="
M54.271774,54.992500 
	C54.187500,54.767094 54.360840,54.460865 54.797745,54.082424 
	C54.884007,54.310703 54.706699,54.611195 54.271774,54.992500 
z"/>
<path fill="#6C6C6F" opacity="1.000000" stroke="none" 
	d="
M38.004227,70.760681 
	C37.770000,70.942642 37.504509,70.799889 37.192329,70.354111 
	C37.462811,70.075233 37.738586,70.203529 38.004227,70.760681 
z"/>
<path fill="#6C6C6F" opacity="1.000000" stroke="none" 
	d="
M41.672394,70.095840 
	C41.710102,70.338043 41.469376,70.608177 40.947182,70.922119 
	C40.908463,70.685211 41.151215,70.404488 41.672394,70.095840 
z"/>
<path fill="#939393" opacity="1.000000" stroke="none" 
	d="
M48.012848,71.712616 
	C47.725361,71.860146 47.388786,71.737251 47.038643,71.317612 
	C47.337967,71.161308 47.650864,71.301758 48.012848,71.712616 
z"/>
<path fill="#676768" opacity="1.000000" stroke="none" 
	d="
M46.156189,70.719231 
	C46.085011,70.991699 45.867588,71.024704 45.320580,71.075523 
	C44.990425,70.923836 44.989853,70.754341 45.012192,70.331894 
	C45.360058,70.212563 45.685005,70.346169 46.156189,70.719231 
z"/>
<path fill="#6361B0" opacity="1.000000" stroke="none" 
	d="
M27.147190,55.733307 
	C18.865673,53.719124 12.991554,48.918072 10.057019,40.215561 
	C10.719906,39.346123 11.256098,39.121864 11.893278,39.174908 
	C12.068306,39.634239 12.142345,39.816269 12.210516,40.340622 
	C13.137668,41.736019 14.070689,42.789104 15.306421,44.028679 
	C17.079144,44.952114 18.549154,45.689060 20.014639,46.424644 
	C20.010113,46.423290 20.006836,46.421814 19.915409,46.814121 
	C22.856579,48.840427 25.889177,50.474426 28.821568,52.322815 
	C28.509752,52.791508 28.243124,52.957520 27.667667,53.059963 
	C27.348965,53.713417 27.284067,54.342140 27.196682,55.161057 
	C27.174196,55.351242 27.147190,55.733307 27.147190,55.733307 
z"/>
<path fill="#5C5BAD" opacity="1.000000" stroke="none" 
	d="
M53.050339,39.261009 
	C51.226837,48.279552 45.872204,53.772533 38.318943,53.991051 
	C37.933506,54.004478 37.969353,54.052139 38.025070,53.682011 
	C38.067818,52.565514 38.054848,51.819149 38.367691,51.034721 
	C39.845261,50.473564 40.997005,49.950466 42.454285,49.289616 
	C43.201801,48.469547 43.643780,47.787231 44.119881,47.124199 
	C44.154007,47.143482 44.232254,47.148369 44.579952,47.130859 
	C47.285076,43.742310 49.642502,40.371269 52.137794,37.279312 
	C52.533890,38.125935 52.792118,38.693470 53.050339,39.261009 
z"/>
<path fill="#DCDCED" opacity="1.000000" stroke="none" 
	d="
M39.065556,9.489161 
	C46.184113,11.745958 51.030823,16.431286 53.572433,23.767643 
	C52.790813,24.592131 52.268929,24.952019 51.539688,25.080406 
	C50.689835,23.707508 50.047340,22.566109 49.273651,21.082237 
	C45.107830,17.771612 41.073208,14.803464 37.240173,11.585598 
	C37.983032,10.720308 38.524292,10.104734 39.065556,9.489161 
z"/>
<path fill="#E1E1EF" opacity="1.000000" stroke="none" 
	d="
M9.837679,25.989891 
	C11.053512,17.217508 16.999050,12.670053 24.860447,9.930752 
	C25.183264,10.977294 25.177317,11.633396 24.890579,12.476719 
	C18.002104,15.316348 13.904699,20.195194 11.643053,26.909424 
	C10.848795,26.570341 10.343237,26.280115 9.837679,25.989891 
z"/>
<path fill="#8383C0" opacity="1.000000" stroke="none" 
	d="
M51.747044,25.311905 
	C52.268929,24.952019 52.790813,24.592131 53.610214,24.116993 
	C56.326904,29.036009 57.449703,34.062668 53.434860,39.161224 
	C52.792118,38.693470 52.533890,38.125935 52.136955,36.820873 
	C51.914509,32.492867 51.830776,28.902386 51.747044,25.311905 
z"/>
<path fill="#B7B7DC" opacity="1.000000" stroke="none" 
	d="
M25.171370,12.289497 
	C25.177317,11.633396 25.183264,10.977294 25.249672,9.831758 
	C29.692886,9.258912 34.075642,9.175499 38.761974,9.290623 
	C38.524292,10.104734 37.983032,10.720308 36.777740,11.608941 
	C32.466263,12.017832 28.818817,12.153665 25.171370,12.289497 
z"/>
<path fill="#9494CB" opacity="1.000000" stroke="none" 
	d="
M9.511759,26.183823 
	C10.343237,26.280115 10.848795,26.570341 11.663972,27.367435 
	C11.986557,30.928434 11.999523,33.982563 11.800161,37.120304 
	C11.486784,37.317039 11.385734,37.430161 11.284684,37.543285 
	C11.511190,37.725193 11.737696,37.907104 11.941801,38.295536 
	C11.919399,38.502060 11.792291,38.897610 11.792291,38.897610 
	C11.256098,39.121864 10.719906,39.346123 10.079266,39.854019 
	C7.749607,35.663536 7.242364,31.090906 9.511759,26.183823 
z"/>
<path fill="#9190B7" opacity="1.000000" stroke="none" 
	d="
M27.584972,55.798779 
	C27.147190,55.733307 27.174196,55.351242 27.534088,55.176025 
	C28.933189,54.709209 29.972403,54.417614 31.108318,53.898216 
	C31.297644,53.361931 31.378502,53.050392 31.642036,52.721794 
	C31.836472,52.707779 32.226433,52.706600 32.226433,52.706600 
	C32.226433,52.706600 32.616093,52.721909 32.779778,53.004997 
	C34.247639,53.590843 35.551815,53.893600 37.144508,54.238869 
	C37.611805,54.204967 37.790581,54.128551 37.969353,54.052139 
	C37.969353,54.052139 37.933506,54.004478 37.907272,54.018265 
	C34.594944,54.642788 31.308847,55.253517 27.584972,55.798779 
z"/>
<path fill="#4F4EA7" opacity="1.000000" stroke="none" 
	d="
M6.389538,24.797585 
	C6.855221,22.737572 7.594887,20.470739 8.653183,18.072897 
	C8.202381,20.158180 7.432951,22.374474 6.389538,24.797585 
z"/>
<path fill="#4747A1" opacity="1.000000" stroke="none" 
	d="
M45.180000,9.194891 
	C46.057003,8.955954 47.093571,8.979343 48.522339,8.948862 
	C47.722881,9.082400 46.531223,9.269809 45.180000,9.194891 
z"/>
<path fill="#4F4EA7" opacity="1.000000" stroke="none" 
	d="
M8.005424,14.654527 
	C7.763095,13.802800 7.550940,12.537747 7.652303,11.102005 
	C7.989080,12.034611 8.012339,13.137906 8.005424,14.654527 
z"/>
<path fill="#4F4EA7" opacity="1.000000" stroke="none" 
	d="
M9.230002,17.923981 
	C8.944048,17.554878 8.953664,17.120596 8.943995,16.361176 
	C9.461943,16.177032 9.999177,16.318027 10.536410,16.459023 
	C10.199465,16.925615 9.862519,17.392208 9.230002,17.923981 
z"/>
<path fill="#4F4EA7" opacity="1.000000" stroke="none" 
	d="
M8.245337,10.991636 
	C8.404216,10.645343 8.877936,10.323583 9.663774,9.976051 
	C9.503987,10.305578 9.032084,10.660874 8.245337,10.991636 
z"/>
<path fill="#4F4EA7" opacity="1.000000" stroke="none" 
	d="
M8.921889,15.802372 
	C8.689776,15.885269 8.390423,15.702929 8.010960,15.261766 
	C8.238783,15.181008 8.546716,15.359073 8.921889,15.802372 
z"/>
<path fill="#000000" opacity="1.000000" stroke="none" 
	d="
M6.144137,74.040070 
	C6.860775,73.442230 7.577413,72.844383 8.568897,72.176826 
	C8.314780,73.517860 7.785817,74.928604 7.126944,76.677979 
	C6.825285,77.007820 6.653536,76.999046 6.233368,76.920769 
	C5.984950,76.851257 6.085533,76.413116 6.042977,75.870529 
	C6.048326,74.898651 6.096232,74.469360 6.144137,74.040070 
z"/>
<path fill="#808080" opacity="1.000000" stroke="none" 
	d="
M5.897017,74.040909 
	C6.096232,74.469360 6.048326,74.898651 5.988564,75.652443 
	C5.683120,75.531349 5.389534,75.085754 5.125919,74.348602 
	C5.155891,74.057030 5.649897,74.041740 5.897017,74.040909 
z"/>
<path fill="#434343" opacity="1.000000" stroke="none" 
	d="
M29.314724,77.745407 
	C29.020185,77.187889 29.002913,76.504982 29.013567,75.482376 
	C29.224993,75.968460 29.408489,76.794243 29.314724,77.745407 
z"/>
<path fill="#9F9F9F" opacity="1.000000" stroke="none" 
	d="
M55.106228,75.441254 
	C55.491020,75.083694 55.826855,75.082489 56.411758,75.108200 
	C56.691387,75.538315 56.721951,75.941528 56.705990,76.646217 
	C56.267658,77.285324 55.875847,77.622955 55.223000,77.956146 
	C54.993729,77.233665 55.025501,76.515640 55.106228,75.441254 
z"/>
<path fill="#424242" opacity="1.000000" stroke="none" 
	d="
M40.126568,73.392578 
	C41.075970,73.041199 41.954929,73.049393 42.915558,73.263298 
	C42.829922,74.274208 42.662621,75.079407 42.495319,75.884605 
	C42.063709,76.099594 41.632099,76.314583 41.104088,76.781464 
	C40.690498,75.939629 40.373310,74.845894 40.126568,73.392578 
z"/>
<path fill="#838384" opacity="1.000000" stroke="none" 
	d="
M42.923000,75.859543 
	C42.662621,75.079407 42.829922,74.274208 43.248642,73.260056 
	C43.752804,72.992455 44.005550,72.933815 44.645123,72.829453 
	C45.350861,73.623283 45.669773,74.462845 45.943405,75.653664 
	C45.048981,75.948120 44.199829,75.891304 42.923000,75.859543 
z"/>
<path fill="#1C1B8B" opacity="1.000000" stroke="none" 
	d="
M38.025070,53.682011 
	C37.790581,54.128551 37.611805,54.204967 37.029732,53.895065 
	C35.289654,53.246471 33.952873,52.984192 32.616093,52.721909 
	C32.616093,52.721909 32.226433,52.706600 32.226433,52.706600 
	C32.226433,52.706600 31.836472,52.707779 31.253664,52.492142 
	C30.087830,52.220474 29.504803,52.164452 28.921776,52.108429 
	C25.889177,50.474426 22.856579,48.840427 20.288992,46.960739 
	C21.935623,47.034615 23.117245,47.354187 24.298864,47.673759 
	C24.310143,46.947693 24.321419,46.221626 24.299011,45.057411 
	C24.446592,42.528793 24.627853,40.438324 25.375938,38.201248 
	C26.359451,40.736202 26.600956,43.461971 27.262159,46.081818 
	C27.626516,47.525486 28.696011,48.791191 29.447605,50.137131 
	C29.887051,49.925739 30.326496,49.714348 30.765942,49.502960 
	C30.765942,38.141754 30.765942,26.780552 30.765942,14.050753 
	C28.307434,16.392929 26.740164,17.886040 25.101189,18.988041 
	C24.256718,18.391619 23.483953,18.186306 22.394222,18.031620 
	C20.749851,19.739508 19.422449,21.396770 18.036474,23.292038 
	C17.977901,23.530041 17.861971,24.006346 17.528957,24.065872 
	C16.821512,26.129356 16.447077,28.133312 16.010635,30.520582 
	C13.483378,36.055161 16.337969,39.940804 19.100574,44.206123 
	C19.452448,45.173748 19.735807,45.799873 20.019165,46.426003 
	C18.549154,45.689060 17.079144,44.952114 15.268117,43.706024 
	C14.023530,42.130688 13.119958,41.064495 12.216385,39.998302 
	C12.142345,39.816269 12.068306,39.634239 11.893278,39.174908 
	C11.792291,38.897610 11.919399,38.502060 11.957085,38.032475 
	C12.000677,37.387493 12.006582,37.212093 12.012488,37.036694 
	C11.999523,33.982563 11.986557,30.928434 11.952673,27.416294 
	C13.904699,20.195194 18.002104,15.316348 24.890579,12.476719 
	C28.818817,12.153665 32.466263,12.017832 36.576149,11.858658 
	C41.073208,14.803464 45.107830,17.771612 48.817223,21.246796 
	C48.218651,21.918701 47.945312,22.083576 47.434654,22.022457 
	C44.352394,19.895203 43.929825,22.426859 43.015823,24.041874 
	C43.006458,24.007418 43.075615,24.025236 42.764824,24.116104 
	C41.321972,25.467880 40.189915,26.728788 38.950966,28.264347 
	C38.250439,29.034544 37.656807,29.530096 36.709160,30.070625 
	C35.924232,33.131634 35.493317,36.147663 35.033630,39.591877 
	C35.634403,42.937698 36.263950,45.855331 37.012825,49.071609 
	C37.435390,49.937756 37.738636,50.505268 38.041878,51.072781 
	C38.054848,51.819149 38.067818,52.565514 38.025070,53.682011 
M37.415199,24.745775 
	C37.598129,24.451502 37.781055,24.157227 38.258389,23.295158 
	C39.563347,21.873724 40.868309,20.452291 42.639736,19.219685 
	C42.984459,19.126600 43.329182,19.033516 43.673904,18.940432 
	C43.068409,18.643482 42.462910,18.346535 41.248619,17.765694 
	C39.834385,17.150969 38.420147,16.536242 36.916553,15.320498 
	C36.479435,15.043959 36.042313,14.767420 35.605194,14.490883 
	C35.421570,15.044349 35.237942,15.597816 35.001926,17.013739 
	C35.325363,19.722561 35.648800,22.431381 35.785694,25.611214 
	C35.863228,25.965439 35.940762,26.319666 36.018295,26.673891 
	C36.321655,26.087376 36.625015,25.500862 36.995102,24.935076 
	C36.995102,24.935076 36.928120,24.954845 37.415199,24.745775 
z"/>
<path fill="#6363B1" opacity="1.000000" stroke="none" 
	d="
M24.332695,45.495560 
	C24.321419,46.221626 24.310143,46.947693 24.298864,47.673759 
	C23.117245,47.354187 21.935623,47.034615 20.380421,46.568428 
	C20.006836,46.421814 20.010113,46.423290 20.014639,46.424644 
	C19.735807,45.799873 19.452448,45.173748 19.426876,44.249641 
	C20.767315,44.605961 21.849964,45.260254 23.185472,46.017845 
	C23.736452,45.912609 24.034573,45.704082 24.332695,45.495560 
z"/>
<path fill="#1E1E8D" opacity="1.000000" stroke="none" 
	d="
M12.210516,40.340622 
	C13.119958,41.064495 14.023530,42.130688 14.965406,43.519535 
	C14.070689,42.789104 13.137668,41.736019 12.210516,40.340622 
z"/>
<path fill="#8888E9" opacity="1.000000" stroke="none" 
	d="
M31.011614,54.126015 
	C29.972403,54.417614 28.933189,54.709209 27.556574,54.985840 
	C27.284067,54.342140 27.348965,53.713417 27.881893,53.326660 
	C29.237154,53.754425 30.124384,53.940216 31.011614,54.126015 
z"/>
<path fill="#4C4BA6" opacity="1.000000" stroke="none" 
	d="
M31.108318,53.898216 
	C30.124384,53.940216 29.237154,53.754425 28.135696,53.301933 
	C28.243124,52.957520 28.509752,52.791508 28.821568,52.322815 
	C29.504803,52.164452 30.087830,52.220474 31.059229,52.506153 
	C31.378502,53.050392 31.297644,53.361931 31.108318,53.898216 
z"/>
<path fill="#1C1B8B" opacity="1.000000" stroke="none" 
	d="
M51.539688,25.080406 
	C51.830776,28.902386 51.914509,32.492867 51.999084,36.541786 
	C49.642502,40.371269 47.285076,43.742310 44.501858,46.754883 
	C42.001793,44.333084 39.927525,42.269760 37.854347,40.156929 
	C37.855446,40.107422 37.907452,40.023144 37.912571,39.695732 
	C37.868427,38.380817 37.819164,37.393318 37.769901,36.405819 
	C38.493710,36.605553 39.217522,36.805286 40.129154,37.294624 
	C41.308083,38.059204 42.299183,38.534180 43.516769,39.095795 
	C44.163376,39.663631 44.583496,40.144836 44.980366,40.993477 
	C45.499699,41.780842 46.042286,42.200771 46.584873,42.620701 
	C47.427380,39.742622 48.269890,36.864548 49.074883,33.607620 
	C49.007969,32.214127 48.978565,31.199484 49.244461,29.972767 
	C48.917168,27.256611 48.294571,24.752529 47.671974,22.248449 
	C47.945312,22.083576 48.218651,21.918701 48.948418,21.589270 
	C50.047340,22.566109 50.689835,23.707508 51.539688,25.080406 
z"/>
<path fill="#1E1E8D" opacity="1.000000" stroke="none" 
	d="
M37.853252,40.206432 
	C39.927525,42.269760 42.001793,44.333084 44.154160,46.772392 
	C44.232254,47.148369 44.154007,47.143482 43.759430,47.141914 
	C42.959484,47.902687 42.554119,48.665028 42.148750,49.427368 
	C40.997005,49.950466 39.845261,50.473564 38.367699,51.034721 
	C37.738636,50.505268 37.435390,49.937756 37.176682,48.778625 
	C38.694363,47.373318 40.167511,46.559635 41.498150,45.824669 
	C40.212227,43.842552 39.032742,42.024490 37.853252,40.206432 
z"/>
<path fill="#1C1B8B" opacity="1.000000" stroke="none" 
	d="
M42.454285,49.289612 
	C42.554119,48.665028 42.959484,47.902687 43.725304,47.122631 
	C43.643780,47.787231 43.201801,48.469547 42.454285,49.289612 
z"/>
<path fill="#1E1E8D" opacity="1.000000" stroke="none" 
	d="
M11.800161,37.120304 
	C12.006582,37.212093 12.000677,37.387493 11.979486,37.825951 
	C11.737696,37.907104 11.511190,37.725193 11.284684,37.543285 
	C11.385734,37.430161 11.486784,37.317039 11.800161,37.120304 
z"/>
<path fill="#4C4BA6" opacity="1.000000" stroke="none" 
	d="
M32.779778,53.004997 
	C33.952873,52.984192 35.289654,53.246471 36.741211,53.852554 
	C35.551815,53.893600 34.247639,53.590843 32.779778,53.004997 
z"/>
<path fill="#D6D5EA" opacity="1.000000" stroke="none" 
	d="
M25.172894,19.379150 
	C26.740164,17.886040 28.307434,16.392929 30.765942,14.050753 
	C30.765942,26.780552 30.765942,38.141754 30.765942,49.502960 
	C30.326496,49.714348 29.887051,49.925739 29.447605,50.137131 
	C28.696011,48.791191 27.626516,47.525486 27.262159,46.081818 
	C26.600956,43.461971 26.359451,40.736202 25.406336,38.230614 
	C24.869907,38.406586 24.918930,38.476086 25.461494,38.628860 
	C26.347143,32.493954 26.702724,26.206762 26.951607,19.915352 
	C26.957077,19.777056 25.743809,19.590549 25.124325,19.411535 
	C25.149595,19.396540 25.172894,19.379148 25.172894,19.379150 
z"/>
<path fill="#000000" opacity="1.000000" stroke="none" 
	d="
M22.932613,45.914551 
	C21.849964,45.260254 20.767315,44.605961 19.358364,43.908150 
	C16.337969,39.940804 13.483378,36.055161 16.326380,30.322706 
	C17.090076,27.829792 17.476025,25.918070 17.861971,24.006346 
	C17.861971,24.006346 17.977901,23.530041 18.362022,23.261076 
	C19.843252,22.016186 20.940359,21.040258 22.272547,20.038357 
	C22.507627,20.012384 22.966011,20.129150 22.981813,20.589466 
	C22.975948,29.338037 22.954281,37.626293 22.932613,45.914551 
z"/>
<path fill="#000000" opacity="1.000000" stroke="none" 
	d="
M45.003620,40.626038 
	C44.583496,40.144836 44.163376,39.663631 43.379330,38.763538 
	C42.012798,37.514763 41.010185,36.684875 39.869209,35.547089 
	C38.841621,33.501339 37.952396,31.763494 37.063175,30.025646 
	C37.656807,29.530096 38.250439,29.034544 39.297928,28.246208 
	C40.859726,26.644028 41.967670,25.334631 43.075615,24.025236 
	C43.075615,24.025236 43.006458,24.007418 43.350414,24.195374 
	C44.771679,24.589336 46.386257,24.433071 46.818462,25.074057 
	C47.830120,26.574408 48.274872,28.457010 48.949162,30.184841 
	C48.978565,31.199484 49.007969,32.214127 48.912903,33.931458 
	C47.526825,36.631443 46.265224,38.628742 45.003620,40.626038 
z"/>
<path fill="#000000" opacity="1.000000" stroke="none" 
	d="
M37.005913,15.921516 
	C38.420147,16.536242 39.834385,17.150969 41.629959,18.153610 
	C42.065285,18.704634 42.119274,18.867744 42.173267,19.030857 
	C40.868309,20.452291 39.563347,21.873724 37.874092,23.693184 
	C37.302570,24.379087 37.115345,24.666967 36.928120,24.954845 
	C36.928120,24.954845 36.995102,24.935076 36.719334,24.966385 
	C36.443565,24.997694 35.972237,25.140203 35.972237,25.140203 
	C35.648800,22.431381 35.325363,19.722561 35.355186,16.557571 
	C36.140934,16.041441 36.573421,15.981479 37.005913,15.921516 
z"/>
<path fill="#000000" opacity="1.000000" stroke="none" 
	d="
M37.854347,40.156929 
	C39.032742,42.024490 40.212227,43.842552 41.498150,45.824669 
	C40.167511,46.559635 38.694363,47.373318 37.057358,48.479984 
	C36.263950,45.855331 35.634403,42.937698 35.339806,39.582626 
	C36.418983,39.437843 37.163219,39.730492 37.907452,40.023144 
	C37.907452,40.023144 37.855446,40.107422 37.854347,40.156929 
z"/>
<path fill="#FFFFFF" opacity="1.000000" stroke="none" 
	d="
M23.185471,46.017845 
	C22.954281,37.626293 22.975948,29.338037 23.287350,20.500301 
	C23.788902,19.960918 24.000725,19.971016 24.218246,20.387287 
	C24.455608,26.687670 24.687269,32.581879 24.918930,38.476086 
	C24.918930,38.476086 24.869907,38.406586 24.839512,38.377220 
	C24.627853,40.438324 24.446592,42.528793 24.299011,45.057411 
	C24.034573,45.704082 23.736452,45.912609 23.185471,46.017845 
z"/>
<path fill="#1E1E8D" opacity="1.000000" stroke="none" 
	d="
M37.912571,39.695732 
	C37.163219,39.730492 36.418983,39.437843 35.368576,39.154442 
	C35.493317,36.147663 35.924232,33.131634 36.709160,30.070625 
	C37.952396,31.763494 38.841621,33.501339 39.857681,35.835052 
	C39.970123,36.622288 39.955727,36.813656 39.941330,37.005024 
	C39.217522,36.805286 38.493710,36.605553 37.769901,36.405819 
	C37.819164,37.393318 37.868427,38.380817 37.912571,39.695732 
z"/>
<path fill="#605FAF" opacity="1.000000" stroke="none" 
	d="
M49.244461,29.972767 
	C48.274872,28.457010 47.830120,26.574408 46.818462,25.074057 
	C46.386257,24.433071 44.771679,24.589336 43.359779,24.229830 
	C43.929825,22.426859 44.352394,19.895203 47.434654,22.022457 
	C48.294571,24.752529 48.917168,27.256611 49.244461,29.972767 
z"/>
<path fill="#1E1E8D" opacity="1.000000" stroke="none" 
	d="
M22.037466,20.064331 
	C20.940359,21.040258 19.843252,22.016186 18.420597,23.023071 
	C19.422449,21.396770 20.749851,19.739508 22.352684,18.303417 
	C22.431231,19.037838 22.234348,19.551085 22.037466,20.064331 
z"/>
<path fill="#1E1E8D" opacity="1.000000" stroke="none" 
	d="
M17.528957,24.065872 
	C17.476025,25.918070 17.090076,27.829792 16.388386,29.939392 
	C16.447077,28.133312 16.821512,26.129356 17.528957,24.065872 
z"/>
<path fill="#6363B1" opacity="1.000000" stroke="none" 
	d="
M22.272547,20.038357 
	C22.234348,19.551085 22.431231,19.037838 22.669651,18.252792 
	C23.483953,18.186306 24.256718,18.391619 25.101187,18.988041 
	C25.172894,19.379148 25.149595,19.396540 24.937222,19.605511 
	C24.554077,19.870026 24.383310,19.925570 24.212545,19.981112 
	C24.000725,19.971016 23.788902,19.960918 23.271545,20.039986 
	C22.966011,20.129150 22.507627,20.012384 22.272547,20.038357 
z"/>
<path fill="#605FAF" opacity="1.000000" stroke="none" 
	d="
M42.764824,24.116104 
	C41.967670,25.334631 40.859726,26.644028 39.404823,27.971561 
	C40.189915,26.728788 41.321972,25.467880 42.764824,24.116104 
z"/>
<path fill="#1E1E8D" opacity="1.000000" stroke="none" 
	d="
M36.961235,15.621007 
	C36.573421,15.981479 36.140934,16.041441 35.381378,16.126343 
	C35.237942,15.597816 35.421570,15.044349 35.605194,14.490882 
	C36.042313,14.767420 36.479435,15.043959 36.961235,15.621007 
z"/>
<path fill="#1E1E8D" opacity="1.000000" stroke="none" 
	d="
M35.878967,25.375710 
	C35.972237,25.140203 36.443565,24.997694 36.685974,24.956020 
	C36.625015,25.500862 36.321655,26.087376 36.018295,26.673891 
	C35.940762,26.319666 35.863228,25.965439 35.878967,25.375710 
z"/>
<path fill="#1E1E8D" opacity="1.000000" stroke="none" 
	d="
M42.406502,19.125271 
	C42.119274,18.867744 42.065285,18.704634 41.934357,18.295555 
	C42.462910,18.346535 43.068409,18.643482 43.673904,18.940430 
	C43.329182,19.033516 42.984459,19.126600 42.406502,19.125271 
z"/>
<path fill="#1E1E8D" opacity="1.000000" stroke="none" 
	d="
M37.171661,24.850311 
	C37.115345,24.666967 37.302570,24.379087 37.726891,23.977081 
	C37.781055,24.157227 37.598129,24.451502 37.171661,24.850311 
z"/>
<path fill="#5656AC" opacity="1.000000" stroke="none" 
	d="
M44.980366,40.993477 
	C46.265224,38.628742 47.526825,36.631443 48.950413,34.310310 
	C48.269890,36.864548 47.427380,39.742622 46.584873,42.620701 
	C46.042286,42.200771 45.499699,41.780842 44.980366,40.993477 
z"/>
<path fill="#5656AC" opacity="1.000000" stroke="none" 
	d="
M40.129154,37.294624 
	C39.955727,36.813656 39.970123,36.622288 39.996048,36.142956 
	C41.010185,36.684875 42.012798,37.514763 43.152847,38.676903 
	C42.299183,38.534180 41.308083,38.059204 40.129154,37.294624 
z"/>
<path fill="#1E1E8D" opacity="1.000000" stroke="none" 
	d="
M24.218246,20.387287 
	C24.383310,19.925570 24.554077,19.870026 24.911951,19.620506 
	C25.743809,19.590549 26.957077,19.777056 26.951607,19.915352 
	C26.702724,26.206762 26.347143,32.493954 25.461493,38.628860 
	C24.687269,32.581879 24.455608,26.687670 24.218246,20.387287 
z"/>
</svg>